<svg width="18" height="18" viewBox="0 0 18 18" fill="none" xmlns="http://www.w3.org/2000/svg">
<g clip-path="url(#clip0_471_2405)">
<path d="M17.4532 7.06421C16.2899 5.16971 13.6439 1.99121 8.99992 1.99121C4.35592 1.99121 1.70992 5.16971 0.546666 7.06421C0.187062 7.64584 -0.00341797 8.31614 -0.00341797 8.99996C-0.00341797 9.68378 0.187062 10.3541 0.546666 10.9357C1.70992 12.8302 4.35592 16.0087 8.99992 16.0087C13.6439 16.0087 16.2899 12.8302 17.4532 10.9357C17.8128 10.3541 18.0033 9.68378 18.0033 8.99996C18.0033 8.31614 17.8128 7.64584 17.4532 7.06421ZM16.1744 10.1505C15.1754 11.775 12.9142 14.5087 8.99992 14.5087C5.08567 14.5087 2.82442 11.775 1.82542 10.1505C1.61177 9.80474 1.4986 9.40637 1.4986 8.99996C1.4986 8.59355 1.61177 8.19518 1.82542 7.84946C2.82442 6.22496 5.08567 3.49121 8.99992 3.49121C12.9142 3.49121 15.1754 6.22196 16.1744 7.84946C16.3881 8.19518 16.5012 8.59355 16.5012 8.99996C16.5012 9.40637 16.3881 9.80474 16.1744 10.1505Z"/>
<path d="M8.99985 5.25C8.25817 5.25 7.53315 5.46993 6.91646 5.88199C6.29978 6.29404 5.81913 6.87971 5.5353 7.56494C5.25147 8.25016 5.17721 9.00416 5.3219 9.73159C5.4666 10.459 5.82375 11.1272 6.3482 11.6517C6.87265 12.1761 7.54083 12.5333 8.26826 12.6779C8.99569 12.8226 9.74969 12.7484 10.4349 12.4645C11.1201 12.1807 11.7058 11.7001 12.1179 11.0834C12.5299 10.4667 12.7498 9.74168 12.7498 9C12.7487 8.0058 12.3532 7.05267 11.6502 6.34967C10.9472 5.64666 9.99405 5.25119 8.99985 5.25ZM8.99985 11.25C8.55484 11.25 8.11983 11.118 7.74982 10.8708C7.37981 10.6236 7.09142 10.2722 6.92112 9.86104C6.75082 9.4499 6.70627 8.9975 6.79308 8.56105C6.8799 8.12459 7.09419 7.72368 7.40886 7.40901C7.72353 7.09434 8.12444 6.88005 8.5609 6.79323C8.99735 6.70642 9.44975 6.75097 9.86089 6.92127C10.272 7.09157 10.6234 7.37996 10.8707 7.74997C11.1179 8.11998 11.2498 8.55499 11.2498 9C11.2498 9.59674 11.0128 10.169 10.5908 10.591C10.1689 11.0129 9.59659 11.25 8.99985 11.25Z"/>
</g>
<defs>
<clipPath id="clip0_471_2405">
<rect width="18" height="18" fill="white"/>
</clipPath>
</defs>
</svg>
