<svg width="40" height="40" viewBox="0 0 40 40" fill="none" xmlns="http://www.w3.org/2000/svg">
<g clip-path="url(#clip0_82_789)">
<path d="M40 15C40.0038 14.0825 39.7551 13.1816 39.281 12.396C38.8069 11.6104 38.1259 10.9704 37.3123 10.5461C36.4988 10.1218 35.5842 9.92949 34.6687 9.99029C33.7532 10.0511 32.872 10.3627 32.1218 10.8908C31.3715 11.419 30.781 12.1435 30.4151 12.9849C30.0491 13.8262 29.9216 14.7521 30.0467 15.6611C30.1719 16.57 30.5447 17.4271 31.1244 18.1383C31.7041 18.8495 32.4683 19.3875 33.3333 19.6933V26.6667C33.3333 29.3188 32.2798 31.8624 30.4044 33.7377C28.529 35.6131 25.9855 36.6667 23.3333 36.6667C20.6812 36.6667 18.1376 35.6131 16.2623 33.7377C14.3869 31.8624 13.3333 29.3188 13.3333 26.6667V26.5333C16.1068 26.1309 18.643 24.7444 20.4789 22.627C22.3149 20.5096 23.328 17.8025 23.3333 15V8.33333C23.3307 6.12401 22.4519 4.00593 20.8896 2.4437C19.3274 0.88147 17.2093 0.00264643 15 0C14.558 0 14.1341 0.175595 13.8215 0.488155C13.5089 0.800716 13.3333 1.22464 13.3333 1.66667C13.3333 2.10869 13.5089 2.53262 13.8215 2.84518C14.1341 3.15774 14.558 3.33333 15 3.33333C16.3261 3.33333 17.5979 3.86012 18.5355 4.7978C19.4732 5.73548 20 7.00725 20 8.33333V15C20 17.2101 19.122 19.3298 17.5592 20.8926C15.9964 22.4554 13.8768 23.3333 11.6667 23.3333C9.45653 23.3333 7.33691 22.4554 5.77411 20.8926C4.21131 19.3298 3.33333 17.2101 3.33333 15V8.33333C3.33333 7.00725 3.86012 5.73548 4.7978 4.7978C5.73548 3.86012 7.00725 3.33333 8.33333 3.33333C8.77536 3.33333 9.19928 3.15774 9.51185 2.84518C9.82441 2.53262 10 2.10869 10 1.66667C10 1.22464 9.82441 0.800716 9.51185 0.488155C9.19928 0.175595 8.77536 0 8.33333 0C6.12401 0.00264643 4.00593 0.88147 2.4437 2.4437C0.88147 4.00593 0.00264643 6.12401 0 8.33333L0 15C0.00535992 17.8025 1.01849 20.5096 2.8544 22.627C4.69031 24.7444 7.22654 26.1309 10 26.5333V26.6667C10 30.2029 11.4048 33.5943 13.9052 36.0948C16.4057 38.5952 19.7971 40 23.3333 40C26.8696 40 30.2609 38.5952 32.7614 36.0948C35.2619 33.5943 36.6667 30.2029 36.6667 26.6667V19.6933C37.6382 19.3499 38.4799 18.7146 39.0765 17.8745C39.6732 17.0344 39.9957 16.0304 40 15V15ZM35 16.6667C34.6704 16.6667 34.3481 16.5689 34.0741 16.3858C33.8 16.2026 33.5864 15.9423 33.4602 15.6378C33.3341 15.3333 33.3011 14.9982 33.3654 14.6748C33.4297 14.3515 33.5884 14.0546 33.8215 13.8215C34.0546 13.5884 34.3516 13.4297 34.6749 13.3654C34.9982 13.301 35.3333 13.3341 35.6378 13.4602C35.9424 13.5863 36.2027 13.8 36.3858 14.074C36.5689 14.3481 36.6667 14.6704 36.6667 15C36.6667 15.442 36.4911 15.8659 36.1785 16.1785C35.866 16.4911 35.442 16.6667 35 16.6667Z"/>
</g>
<defs>
<clipPath id="clip0_82_789">
<rect width="40" height="40"/>
</clipPath>
</defs>
</svg>
