<svg width="18" height="18" viewBox="0 0 18 18" fill="none" xmlns="http://www.w3.org/2000/svg">
<g clip-path="url(#clip0_471_2400)">
<path d="M17.3409 6.80183L11.6522 1.11233C10.9481 0.410325 9.99441 0.0161133 9.00016 0.0161133C8.00591 0.0161133 7.05223 0.410325 6.34816 1.11233L0.659412 6.80183C0.449731 7.01017 0.283489 7.25806 0.170324 7.53112C0.057158 7.80419 -0.000680212 8.097 0.000161648 8.39258V15.7553C0.000161648 16.3521 0.237215 16.9244 0.659171 17.3463C1.08113 17.7683 1.65342 18.0053 2.25016 18.0053H15.7502C16.3469 18.0053 16.9192 17.7683 17.3412 17.3463C17.7631 16.9244 18.0002 16.3521 18.0002 15.7553V8.39258C18.001 8.097 17.9432 7.80419 17.83 7.53112C17.7168 7.25806 17.5506 7.01017 17.3409 6.80183ZM11.2502 16.5053H6.75016V13.5548C6.75016 12.9581 6.98721 12.3858 7.40917 11.9638C7.83113 11.5419 8.40343 11.3048 9.00016 11.3048C9.5969 11.3048 10.1692 11.5419 10.5912 11.9638C11.0131 12.3858 11.2502 12.9581 11.2502 13.5548V16.5053ZM16.5002 15.7553C16.5002 15.9542 16.4211 16.145 16.2805 16.2857C16.1398 16.4263 15.9491 16.5053 15.7502 16.5053H12.7502V13.5548C12.7502 12.5603 12.3551 11.6064 11.6518 10.9032C10.9486 10.1999 9.99472 9.80483 9.00016 9.80483C8.0056 9.80483 7.05177 10.1999 6.34851 10.9032C5.64525 11.6064 5.25016 12.5603 5.25016 13.5548V16.5053H2.25016C2.05125 16.5053 1.86048 16.4263 1.71983 16.2857C1.57918 16.145 1.50016 15.9542 1.50016 15.7553V8.39258C1.50086 8.19382 1.5798 8.00332 1.71991 7.86233L7.40866 2.17508C7.83144 1.75428 8.40366 1.51804 9.00016 1.51804C9.59666 1.51804 10.1689 1.75428 10.5917 2.17508L16.2804 7.86458C16.42 8.00502 16.4989 8.1946 16.5002 8.39258V15.7553Z" fill="#1CB9D9"/>
</g>
<defs>
<clipPath id="clip0_471_2400">
<rect width="18" height="18" fill="white"/>
</clipPath>
</defs>
</svg>
