<svg width="18" height="18" viewBox="0 0 18 18" fill="none" xmlns="http://www.w3.org/2000/svg">
<g clip-path="url(#clip0_471_2411)">
<path d="M8.99916 9C9.5925 9 10.1725 8.82405 10.6659 8.49441C11.1592 8.16476 11.5437 7.69623 11.7708 7.14805C11.9979 6.59987 12.0573 5.99667 11.9415 5.41473C11.8258 4.83279 11.54 4.29824 11.1205 3.87868C10.7009 3.45912 10.1664 3.1734 9.58443 3.05764C9.00248 2.94189 8.39928 3.0013 7.85111 3.22836C7.30293 3.45542 6.83439 3.83994 6.50475 4.33329C6.1751 4.82664 5.99916 5.40666 5.99916 6C5.99916 6.79565 6.31523 7.55871 6.87784 8.12132C7.44044 8.68393 8.20351 9 8.99916 9ZM8.99916 4.5C9.29583 4.5 9.58584 4.58797 9.83251 4.7528C10.0792 4.91762 10.2714 5.15189 10.385 5.42597C10.4985 5.70006 10.5282 6.00166 10.4703 6.29264C10.4125 6.58361 10.2696 6.85088 10.0598 7.06066C9.85004 7.27044 9.58276 7.4133 9.29179 7.47118C9.00082 7.52906 8.69922 7.49935 8.42513 7.38582C8.15104 7.27229 7.91677 7.08003 7.75195 6.83335C7.58713 6.58668 7.49916 6.29667 7.49916 6C7.49916 5.60218 7.65719 5.22064 7.9385 4.93934C8.2198 4.65804 8.60133 4.5 8.99916 4.5ZM15.4942 6.86775L14.9549 6.6885C15.0519 5.84844 14.9703 4.99736 14.7154 4.19106C14.4604 3.38477 14.0379 2.64147 13.4755 2.00992C12.9132 1.37836 12.2237 0.87282 11.4522 0.526435C10.6808 0.18005 9.8448 0.000650611 8.99916 0C8.14248 0.000330727 7.29581 0.184271 6.51622 0.539426C5.73662 0.894582 5.04221 1.4127 4.47975 2.05888C3.91729 2.70506 3.49986 3.46428 3.25559 4.2854C3.01131 5.10652 2.94587 5.97045 3.06366 6.819C2.34593 6.95282 1.68225 7.29144 1.15266 7.794C0.786037 8.14256 0.494584 8.56242 0.296216 9.02777C0.0978472 9.49313 -0.00324404 9.99414 -0.000843229 10.5V13.5563C0.000732967 14.3672 0.264501 15.156 0.7511 15.8048C1.2377 16.4536 1.92104 16.9277 2.69916 17.1562L4.85166 17.8312C5.2132 17.9438 5.58976 18.0007 5.96841 18C6.3119 17.9996 6.65375 17.9526 6.98466 17.8605L11.3197 16.578C11.7058 16.4726 12.1132 16.4726 12.4994 16.578L14.2897 17.178C14.7309 17.2854 15.1907 17.2912 15.6345 17.1951C16.0783 17.0989 16.4945 16.9032 16.8517 16.6228C17.2089 16.3424 17.4977 15.9845 17.6965 15.5762C17.8953 15.1679 17.9988 14.7199 17.9992 14.2657V10.404C17.9975 9.62806 17.7558 8.87163 17.3073 8.23841C16.8589 7.60519 16.2255 7.12616 15.4942 6.867V6.86775ZM5.81766 2.8215C6.23485 2.40262 6.73065 2.07024 7.27662 1.84345C7.82258 1.61666 8.40796 1.49991 8.99916 1.49991C9.59035 1.49991 10.1757 1.61666 10.7217 1.84345C11.2677 2.07024 11.7635 2.40262 12.1807 2.8215C13.0223 3.66836 13.4953 4.81336 13.4969 6.0073C13.4984 7.20124 13.0283 8.34747 12.1889 9.1965L9.52416 11.7878C9.38507 11.9241 9.19806 12.0005 9.00328 12.0005C8.8085 12.0005 8.62149 11.9241 8.48241 11.7878L5.81766 9.20775C4.97426 8.35904 4.50089 7.21113 4.50089 6.01462C4.50089 4.81812 4.97426 3.67021 5.81766 2.8215ZM16.4992 14.2657C16.4996 14.4929 16.4482 14.7172 16.3489 14.9215C16.2497 15.1258 16.1051 15.3048 15.9262 15.4447C15.7571 15.5807 15.5602 15.6777 15.3494 15.7289C15.1387 15.7801 14.9192 15.7842 14.7067 15.741L12.9479 15.15C12.2827 14.9589 11.5776 14.9547 10.9102 15.138L6.57216 16.419C6.15536 16.534 5.71427 16.5264 5.30166 16.3973L3.13116 15.7222C2.6614 15.5864 2.24838 15.3018 1.95411 14.9113C1.65984 14.5207 1.5002 14.0453 1.49916 13.5563V10.5C1.49747 10.1968 1.55781 9.89653 1.67647 9.61755C1.79513 9.33857 1.9696 9.08681 2.18916 8.87775C2.53285 8.5502 2.97067 8.33876 3.44091 8.27325C3.74324 9.02263 4.19344 9.70343 4.76466 10.275L7.43991 12.8647C7.85804 13.2742 8.41995 13.5035 9.00516 13.5035C9.59036 13.5035 10.1523 13.2742 10.5704 12.8647L13.2427 10.2675C13.841 9.66678 14.3045 8.94553 14.6024 8.15175L15.0052 8.28525C15.4419 8.44176 15.8198 8.72922 16.0872 9.1084C16.3545 9.48759 16.4984 9.94003 16.4992 10.404V14.2657Z" fill="#CCCCCC"/>
</g>
<defs>
<clipPath id="clip0_471_2411">
<rect width="18" height="18" fill="white"/>
</clipPath>
</defs>
</svg>
